Coordinates
version=1
nRows=7
nColumns=40
inDegrees=yes

Units are S.I. units (second, meters, Newtons, ...)
Angles are in degrees.

endheader
time	pelvis_tilt	pelvis_list	pelvis_rotation	pelvis_tx	pelvis_ty	pelvis_tz	hip_flexion_r	hip_adduction_r	hip_rotation_r	knee_angle_r	knee_angle_r_beta	ankle_angle_r	subtalar_angle_r	mtp_angle_r	hip_flexion_l	hip_adduction_l	hip_rotation_l	knee_angle_l	knee_angle_l_beta	ankle_angle_l	subtalar_angle_l	mtp_angle_l	lumbar_extension	lumbar_bending	lumbar_rotation	arm_flex_r	arm_add_r	arm_rot_r	elbow_flex_r	pro_sup_r	wrist_flex_r	wrist_dev_r	arm_flex_l	arm_add_l	arm_rot_l	elbow_flex_l	pro_sup_l	wrist_flex_l	wrist_dev_l
     24.01500000	     -8.04626706	     -7.04192180	      7.55029840	      0.94541495	      0.91669297	      0.46353580	      5.66712220	      1.70977601	    -13.45665521	     22.95982053	     22.95982053	     16.07559321	     -7.26242965	     -2.68421740	     30.81524789	     -6.40205369	      5.03355989	     27.72309105	     27.72309105	     10.02305605	     -6.66907296	      0.94990864	     -9.76487897	      2.64654575	      3.16814756	     50.93525628	    -11.79824991	      5.24116781	    117.50868321	     43.38076307	      0.00000000	      0.00000000	     -3.11557943	     -8.76820493	     -5.83956544	     39.83031055	     47.04563506	      0.00000000	      0.00000000
     24.03428571	     -8.20706397	     -7.09652725	      7.44914420	      0.94594472	      0.91839517	      0.46003926	      5.31653491	      1.51377954	    -13.63399205	     22.64579582	     22.64579582	     14.68844035	     -7.20750052	     -4.71683295	     30.15232060	     -6.30403568	      4.90998620	     27.11271814	     27.11271814	     10.33572984	     -6.53986663	      1.52518319	     -9.58576661	      2.64565549	      2.75515352	     50.58185947	    -11.34370858	      5.86195804	    115.84826901	     43.50351890	      0.00000000	      0.00000000	     -3.00225884	     -9.12740930	     -5.46055650	     42.35245985	     46.97831227	      0.00000000	      0.00000000
     24.05357143	     -8.33022032	     -7.15881385	      7.28945659	      0.94650462	      0.92010820	      0.45659252	      5.02812110	      1.32057092	    -13.71921408	     22.56521977	     22.56521977	     14.02579819	     -6.88717920	     -4.76127307	     29.42261910	     -6.24078427	      4.76895147	     26.45851767	     26.45851767	     10.47861029	     -6.45234541	      1.68536916	     -9.37899526	      2.70791115	      3.05720275	     49.79673288	    -11.55724532	      6.01527262	    114.75190861	     43.53851612	      0.00000000	      0.00000000	     -1.84698583	     -9.17980259	     -5.47843719	     43.14395122	     46.99573775	      0.00000000	      0.00000000
     24.07285714	     -8.35323452	     -7.14622957	      7.10645831	      0.94704581	      0.92186320	      0.45307012	      4.61757583	      0.99976860	    -13.97168642	     22.47326131	     22.47326131	     13.25326423	     -6.25666224	     -5.40419833	     28.57101408	     -6.06929768	      4.71669687	     25.81437697	     25.81437697	     10.54481733	     -6.71304495	      2.02121148	     -9.25558962	      2.69923669	      3.34614187	     49.19098595	    -12.18444167	      6.00421203	    112.25378775	     43.63558118	      0.00000000	      0.00000000	     -0.89934050	     -9.33056372	     -5.40495858	     44.41161466	     47.00037261	      0.00000000	      0.00000000
     24.09214286	     -8.36703946	     -7.12342376	      6.88351283	      0.94753369	      0.92335537	      0.44954439	      4.29705215	      0.65117636	    -14.10842871	     22.54529544	     22.54529544	     12.40463926	     -5.80239187	     -6.39623268	     27.77153112	     -5.85712097	      4.77779556	     25.29088117	     25.29088117	     10.61040128	     -7.20099439	      2.43210344	     -9.12386432	      2.78094226	      3.37230509	     48.53711952	    -12.26945273	      6.20929324	    109.32369248	     43.74407298	      0.00000000	      0.00000000	     -0.13135785	     -9.52919407	     -5.20901236	     45.66227514	     46.98957646	      0.00000000	      0.00000000
     24.11142857	     -8.34913495	     -7.07628493	      6.60842904	      0.94806693	      0.92464500	      0.44609558	      4.00469630	      0.28987748	    -14.06335518	     22.73525172	     22.73525172	     11.68080442	     -5.52014386	     -7.11995535	     26.98995575	     -5.64112523	      4.81188332	     24.89210070	     24.89210070	     10.70319998	     -7.71541404	      2.81285585	     -9.00087618	      2.84563143	      3.55836882	     47.61069089	    -12.55591528	      6.32699673	    106.35745098	     43.84701467	      0.00000000	      0.00000000	      0.78089911	     -9.72000316	     -5.08113533	     46.57859815	     46.98850296	      0.00000000	      0.00000000
     24.13071429	     -8.28917392	     -7.02564846	      6.31838138	      0.94848579	      0.92555261	      0.44256969	      3.77728055	     -0.11303011	    -13.97591581	     23.11774671	     23.11774671	     10.98018083	     -5.30215057	     -8.18829172	     26.30459929	     -5.36239434	      4.98976902	     24.75024112	     24.75024112	     10.84729776	     -8.65453495	      3.31723158	     -8.90911557	      2.99910787	      3.61228751	     46.82041100	    -12.62340940	      6.37724450	    102.33361769	     43.98981923	      0.00000000	      0.00000000	      1.69562821	     -9.91215358	     -4.79051718	     47.26586138	     46.96883000	      0.00000000	      0.00000000
